<svg viewBox="0 0 16 16" width="16" height="16"><path fill="#828282" d="m 13.466285,14.555801 0,-4.250418 1.416795,0 0,5.667195 -12.7940829,0 0,-5.667195 1.4167946,0 0,4.250418 z"/><path fill="#828282" d="m 5.0943187,9.918982 6.9551723,1.459749 0.300536,-1.37389 L 5.3948541,8.5451743 5.0943222,9.918982 Z M 5.9959154,6.5701953 12.43589,9.5755507 13.036953,8.2875181 6.5969779,5.2822458 5.9959135,6.5701953 Z M 7.7991085,3.3931253 13.251619,7.9440866 14.153217,6.87074 8.7007049,2.3198614 7.7991085,3.3931253 Z M 11.319627,0.04433957 10.160433,0.903001 14.410816,6.6131651 15.570011,5.7545055 11.319627,0.04433957 Z M 4.9225863,13.139022 l 7.1269047,0 0,-1.41686 -7.1269047,0 0,1.41686 z"/></svg>
